<svg width="86" height="89" viewBox="0 0 86 89" fill="none" xmlns="http://www.w3.org/2000/svg">
<circle cx="43" cy="43.5" r="43" fill="#FFF1D7"/>
<g clip-path="url(#clip0_3494_1783)">
<path d="M74.414 57.6202C72.2875 44.8649 61.5768 32.8193 48.9219 29.3997C39.3222 26.8093 29.0368 29.109 21.4768 36.1705C11.3824 45.5831 7.42451 60.2789 14.8022 71.6492C21.0168 81.2327 32.7257 87.5333 44.3477 88.2258C51.1265 88.6362 58.3827 86.9093 63.9897 82.7031C73.1815 75.804 75.8982 66.5368 74.414 57.6116V57.6202Z" fill="#FFD56A"/>
<mask id="mask0_3494_1783" style="mask-type:luminance" maskUnits="userSpaceOnUse" x="9" y="28" width="66" height="61">
<path d="M74.402 57.6202C72.2089 44.8649 61.1628 32.8193 48.1115 29.3997C38.2112 26.8093 27.6037 29.109 19.807 36.1705C9.39641 45.5831 5.31454 60.2789 12.9233 71.6492C19.3326 81.2327 31.4081 87.5333 43.3941 88.2258C50.3852 88.6362 57.8687 86.9093 63.6513 82.7031C73.1309 75.804 75.9327 66.5368 74.402 57.6116V57.6202Z" fill="white"/>
</mask>
<g mask="url(#mask0_3494_1783)">
<path d="M76.6315 59.8686C75.799 62.8436 74.5011 65.699 72.8719 68.4091C71.2338 71.1106 69.2376 73.6497 66.8923 75.8981C62.2196 80.412 56.1684 83.729 49.6697 85.3106C46.4203 86.1057 43.1709 86.5417 39.832 86.6613C36.511 86.7639 33.1453 86.4562 29.8959 85.6526C26.6465 84.866 23.5493 83.5238 20.8191 81.7371C18.0889 79.9418 15.7436 77.7105 13.8906 75.197L14.553 74.6243C16.9431 76.5649 19.4763 78.2405 22.1976 79.4887C23.5582 80.1042 24.9457 80.6428 26.369 81.0617C27.7923 81.4806 29.2424 81.7713 30.7015 82.0192C33.6286 82.4723 36.6095 82.4894 39.5814 82.25C41.0673 82.1303 42.5533 81.9508 44.0213 81.6772C45.4983 81.4464 46.9753 81.1045 48.3896 80.7368C54.0828 79.2151 59.3641 76.4965 63.9383 72.829C66.2299 70.9995 68.3693 68.9562 70.3297 66.7164C72.299 64.4851 74.0804 62.0571 75.8259 59.5352L76.6405 59.8857L76.6315 59.8686Z" fill="#213546"/>
<path d="M76.6315 59.8686C75.799 62.8436 74.5011 65.699 72.8719 68.4091C71.2338 71.1106 69.2376 73.6497 66.8923 75.8981C62.2196 80.412 56.1684 83.729 49.6697 85.3106C46.4203 86.1057 43.1709 86.5417 39.832 86.6613C36.511 86.7639 33.1453 86.4562 29.8959 85.6526C26.6465 84.866 23.5493 83.5238 20.8191 81.7371C18.0889 79.9418 15.7436 77.7105 13.8906 75.197L14.553 74.6243C16.9431 76.5649 19.4763 78.2405 22.1976 79.4887C23.5582 80.1042 24.9457 80.6428 26.369 81.0617C27.7923 81.4806 29.2424 81.7713 30.7015 82.0192C33.6286 82.4723 36.6095 82.4894 39.5814 82.25C41.0673 82.1303 42.5533 81.9508 44.0213 81.6772C45.4983 81.4464 46.9753 81.1045 48.3896 80.7368C54.0828 79.2151 59.3641 76.4965 63.9383 72.829C66.2299 70.9995 68.3693 68.9562 70.3297 66.7164C72.299 64.4851 74.0804 62.0571 75.8259 59.5352L76.6405 59.8857L76.6315 59.8686Z" fill="black" fill-opacity="0.2"/>
<path d="M77.0699 65.7929C76.3269 68.768 75.1185 71.6404 73.5699 74.3761C72.0123 77.1033 70.0788 79.6766 67.7872 81.9592C63.213 86.5329 57.1528 89.8841 50.6272 91.3546C47.3778 92.0984 44.1195 92.4745 40.7895 92.5002C37.4685 92.5173 34.1207 92.0642 30.934 91.1409C27.7383 90.2261 24.7216 88.7642 22.0899 86.892C19.4582 85.0112 17.2024 82.7286 15.4121 80.2066L16.0924 79.6509C18.4377 81.6257 20.8994 83.3612 23.558 84.7034C24.2025 85.0625 24.9007 85.3446 25.572 85.6353C26.2344 85.9516 26.9416 86.191 27.6398 86.4218C28.3291 86.6868 29.0452 86.8663 29.7524 87.0459C30.4506 87.2596 31.1757 87.3878 31.8918 87.5417C37.6476 88.636 43.6988 88.1401 49.4188 86.7552C55.0672 85.3446 60.2948 82.6345 64.7706 78.9328C67.0084 77.0862 69.0852 75.0088 70.9739 72.7433C72.8806 70.4778 74.5724 68.0242 76.2464 65.4766L77.0699 65.8014V65.7929Z" fill="#213546"/>
<path d="M77.0699 65.7929C76.3269 68.768 75.1185 71.6404 73.5699 74.3761C72.0123 77.1033 70.0788 79.6766 67.7872 81.9592C63.213 86.5329 57.1528 89.8841 50.6272 91.3546C47.3778 92.0984 44.1195 92.4745 40.7895 92.5002C37.4685 92.5173 34.1207 92.0642 30.934 91.1409C27.7383 90.2261 24.7216 88.7642 22.0899 86.892C19.4582 85.0112 17.2024 82.7286 15.4121 80.2066L16.0924 79.6509C18.4377 81.6257 20.8994 83.3612 23.558 84.7034C24.2025 85.0625 24.9007 85.3446 25.572 85.6353C26.2344 85.9516 26.9416 86.191 27.6398 86.4218C28.3291 86.6868 29.0452 86.8663 29.7524 87.0459C30.4506 87.2596 31.1757 87.3878 31.8918 87.5417C37.6476 88.636 43.6988 88.1401 49.4188 86.7552C55.0672 85.3446 60.2948 82.6345 64.7706 78.9328C67.0084 77.0862 69.0852 75.0088 70.9739 72.7433C72.8806 70.4778 74.5724 68.0242 76.2464 65.4766L77.0699 65.8014V65.7929Z" fill="black" fill-opacity="0.2"/>
</g>
<path d="M46.4219 34.3836C46.4219 34.3836 47.8367 25.9969 53.0444 24.2871" stroke="url(#paint0_linear_3494_1783)" stroke-linecap="round" stroke-linejoin="round"/>
<path d="M23.7246 26.3896C23.7246 26.3896 29.2449 30.7411 30.1909 34.9302" stroke="url(#paint1_linear_3494_1783)" stroke-linecap="round" stroke-linejoin="round"/>
<path d="M54.9805 25.3129C56.0495 25.3129 56.916 24.4593 56.916 23.4064C56.916 22.3535 56.0495 21.5 54.9805 21.5C53.9115 21.5 53.0449 22.3535 53.0449 23.4064C53.0449 24.4593 53.9115 25.3129 54.9805 25.3129Z" fill="url(#paint2_linear_3494_1783)"/>
<path d="M22.5352 27.2533C23.6041 27.2533 24.4707 26.3998 24.4707 25.3469C24.4707 24.294 23.6041 23.4404 22.5352 23.4404C21.4662 23.4404 20.5996 24.294 20.5996 25.3469C20.5996 26.3998 21.4662 27.2533 22.5352 27.2533Z" fill="url(#paint3_linear_3494_1783)"/>
<path opacity="0.36" d="M56 76.5C60.9706 76.5 65 72.4706 65 67.5C65 62.5294 60.9706 58.5 56 58.5C51.0294 58.5 47 62.5294 47 67.5C47 72.4706 51.0294 76.5 56 76.5Z" fill="url(#paint4_radial_3494_1783)"/>
<path opacity="0.36" d="M24 78.5C28.9706 78.5 33 74.4706 33 69.5C33 64.5294 28.9706 60.5 24 60.5C19.0294 60.5 15 64.5294 15 69.5C15 74.4706 19.0294 78.5 24 78.5Z" fill="url(#paint5_radial_3494_1783)"/>
<path d="M32.7135 65.6569C33.9425 65.5812 34.8512 64.1427 34.7433 62.4441C34.6354 60.7454 33.5517 59.4297 32.3228 59.5055C31.0939 59.5812 30.1851 61.0196 30.293 62.7183C30.4009 64.417 31.4846 65.7326 32.7135 65.6569Z" fill="#213546"/>
<path d="M32.7135 65.6569C33.9425 65.5812 34.8512 64.1427 34.7433 62.4441C34.6354 60.7454 33.5517 59.4297 32.3228 59.5055C31.0939 59.5812 30.1851 61.0196 30.293 62.7183C30.4009 64.417 31.4846 65.7326 32.7135 65.6569Z" fill="black" fill-opacity="0.2"/>
<path d="M47.7116 64.7887C48.9405 64.713 49.8493 63.2746 49.7414 61.5759C49.6335 59.8772 48.5498 58.5616 47.3209 58.6373C46.0919 58.713 45.1832 60.1515 45.2911 61.8501C45.399 63.5488 46.4827 64.8645 47.7116 64.7887Z" fill="#213546"/>
<path d="M47.7116 64.7887C48.9405 64.713 49.8493 63.2746 49.7414 61.5759C49.6335 59.8772 48.5498 58.5616 47.3209 58.6373C46.0919 58.713 45.1832 60.1515 45.2911 61.8501C45.399 63.5488 46.4827 64.8645 47.7116 64.7887Z" fill="black" fill-opacity="0.2"/>
<path d="M24.9524 85.0583C23.1099 85.3226 21.0191 85.0416 19.4897 84.7793C15.2135 84.0679 10.8223 79.6859 14.0714 75.4093C17.037 71.5166 24.7482 71.6587 27.4901 75.3564C28.9539 77.3277 29.8679 80.6028 28.6242 82.8793C27.893 84.2227 26.506 84.8313 24.9524 85.0583Z" fill="#FFDF8F"/>
<path d="M61.8487 85.3954C63.7102 85.3228 65.7113 84.6682 67.1802 84.1391C71.2585 82.6699 74.7725 77.5782 70.7736 73.9667C67.1338 70.679 59.5619 72.2092 57.5491 76.3316C56.4751 78.5333 56.188 81.9031 57.8338 83.9215C58.8037 85.1053 60.2796 85.4561 61.8571 85.3933L61.8487 85.3954Z" fill="#FFDF8F"/>
<path d="M38.3353 64.5511C39.0086 63.2108 40.7492 63.3841 42.0483 63.808C42.5836 63.9826 42.7785 64.6027 42.4736 65.0761C42.1564 65.5685 41.7189 66.1871 41.2252 66.7143C40.7427 67.2296 40.2049 67.6757 39.7876 67.9932C39.3882 68.2969 38.8203 68.2185 38.5627 67.7879C38.0793 66.9798 37.6986 65.8185 38.3353 64.5511Z" fill="#FAA83F"/>
<path d="M11.5 25.5C11.5 29.0893 9.03397 32 6 32C9.03397 32 11.5 34.9107 11.5 38.5C11.5 34.9107 13.966 32 17 32C13.966 32 11.5 29.0893 11.5 25.5Z" fill="#6DDA85"/>
<path d="M70.5 38.5C70.5 42.9176 67.5856 46.5 64 46.5C67.5856 46.5 70.5 50.0824 70.5 54.5C70.5 50.0824 73.4144 46.5 77 46.5C73.4144 46.5 70.5 42.9176 70.5 38.5Z" fill="#6DDA85"/>
</g>
<defs>
<linearGradient id="paint0_linear_3494_1783" x1="45.9879" y1="29.3396" x2="53.4784" y2="29.3396" gradientUnits="userSpaceOnUse">
<stop stop-color="#6F6E72"/>
<stop offset="1" stop-color="#4E4C4A"/>
</linearGradient>
<linearGradient id="paint1_linear_3494_1783" x1="23.2906" y1="30.6556" x2="30.6162" y2="30.6556" gradientUnits="userSpaceOnUse">
<stop stop-color="#6F6E72"/>
<stop offset="1" stop-color="#4E4C4A"/>
</linearGradient>
<linearGradient id="paint2_linear_3494_1783" x1="53.0449" y1="23.4064" x2="56.9074" y2="23.4064" gradientUnits="userSpaceOnUse">
<stop stop-color="#6F6E72"/>
<stop offset="1" stop-color="#4E4C4A"/>
</linearGradient>
<linearGradient id="paint3_linear_3494_1783" x1="20.5996" y1="25.3469" x2="24.4707" y2="25.3469" gradientUnits="userSpaceOnUse">
<stop stop-color="#6F6E72"/>
<stop offset="1" stop-color="#4E4C4A"/>
</linearGradient>
<radialGradient id="paint4_radial_3494_1783" cx="0" cy="0" r="1" gradientUnits="userSpaceOnUse" gradientTransform="translate(56.0038 67.4951) rotate(-3.58) scale(9)">
<stop stop-color="#FAA83F"/>
<stop offset="0.94" stop-color="#FFC92E"/>
</radialGradient>
<radialGradient id="paint5_radial_3494_1783" cx="0" cy="0" r="1" gradientUnits="userSpaceOnUse" gradientTransform="translate(23.9833 69.4943) rotate(86.42) scale(9)">
<stop stop-color="#FAA83F"/>
<stop offset="0.94" stop-color="#FFD364"/>
</radialGradient>
<clipPath id="clip0_3494_1783">
<rect width="72" height="67" fill="white" transform="translate(7 21.5)"/>
</clipPath>
</defs>
</svg>
