<svg width="136" height="52" viewBox="0 0 136 52" fill="none" xmlns="http://www.w3.org/2000/svg">
<g clip-path="url(#clip0_3141_64658)">
<path d="M119.524 2.65573C119.524 1.1929 118.316 0 116.846 0H111.532C110.061 0 108.853 1.1929 108.853 2.65573V3.79638H108.827V15.6296C105.763 14.6979 102.901 14.367 101.413 14.3583C97.3948 14.2887 93.2718 15.4206 89.6652 17.5017C87.3193 18.8165 85.2096 20.5318 83.4676 22.5606C79.187 27.5412 77.944 34.8031 80.3075 41.0462C83.0912 48.4126 89.9541 51.7388 97.0797 51.6691C105.431 51.6082 113.178 46.9672 116.662 39.357C118.885 34.4983 119.542 28.8995 119.542 23.6055C119.542 23.5881 119.542 3.78768 119.524 3.78768V2.64702V2.65573ZM107.803 32.931C106.227 38.2425 101.474 41.8038 95.7666 41.1072C93.0354 40.785 90.777 39.2177 90.0767 36.501C89.2976 33.4622 90.4356 30.3537 92.7641 28.29C95.0138 26.2961 98.0776 24.9551 101.115 24.9551C101.168 24.9551 101.211 24.9551 101.264 24.9725C106.105 25.0944 109.265 28.0288 107.794 32.931H107.803Z" fill="#213546"/>
<path d="M135.474 2.69056V2.66443C135.474 1.20161 134.284 0 132.796 0H127.5C126.012 0 124.821 1.20161 124.821 2.66443V2.69056H124.795V49.3181H124.821V49.3443C124.821 50.8071 126.012 52.0087 127.5 52.0087H132.796C134.284 52.0087 135.474 50.8071 135.474 49.3443V49.3181H135.501V2.69056H135.474Z" fill="#213546"/>
<path d="M21.4652 4.30127C9.884 4.30127 0.5 13.9403 0.5 25.8257C0.5 37.7112 9.884 47.3502 21.4652 47.3502C33.0464 47.3502 42.4304 37.7112 42.4304 25.8257C42.4304 13.9403 33.0376 4.30127 21.4652 4.30127ZM21.4652 36.7011C15.6702 36.7011 10.952 31.825 10.952 25.8257C10.952 19.8264 15.6702 14.9503 21.4652 14.9503C27.2601 14.9503 31.9784 19.8264 31.9784 25.8257C31.9784 31.825 27.2601 36.7011 21.4652 36.7011Z" fill="#213546"/>
<path d="M79.6252 18.5727C79.809 18.5727 79.9754 18.503 80.0979 18.3898C82.5577 15.7167 85.5865 13.5311 88.9042 11.9464C89.3594 11.72 89.6657 11.2585 89.6657 10.7448V2.69056H89.6482V2.66443C89.6482 1.20161 88.4402 0 86.9696 0H81.6561C80.1854 0 78.9774 1.20161 78.9774 2.66443V2.69056H78.9512V17.9196C78.9512 18.2766 79.2488 18.5727 79.6165 18.5727H79.6252Z" fill="#213546"/>
<path d="M67.7286 1.74146C67.7286 0.783657 66.9407 0 65.9778 0H58.2745C57.3116 0 56.5238 0.783657 56.5238 1.74146V2.82987H56.4975V10.7971H48.0852V10.8232H46.991C46.0281 10.8232 45.2402 11.6068 45.2402 12.5646V20.2271C45.2402 21.1849 46.0281 21.9685 46.991 21.9685H48.0852V21.9946H56.4975V30.0054H48.0852V30.0315H46.991C46.0281 30.0315 45.2402 30.8151 45.2402 31.7729V39.4354C45.2402 40.3932 46.0281 41.1768 46.991 41.1768H48.0852V41.2029H56.4975V47.3677H56.5238V50.0757C56.5238 51.0335 57.3116 51.8171 58.2745 51.8171H65.9778C66.9407 51.8171 67.7286 51.0335 67.7286 50.0757V47.3677H67.7548V2.82987H67.7286V1.74146Z" fill="#213546"/>
</g>
<defs>
<clipPath id="clip0_3141_64658">
<rect width="135" height="52" fill="white" transform="translate(0.5)"/>
</clipPath>
</defs>
</svg>
