<svg width="142" height="107" viewBox="0 0 142 107" fill="none" xmlns="http://www.w3.org/2000/svg">
<path d="M30.0975 62.5364C26.304 62.4756 22.3408 61.0382 18.5473 61.7569C14.7537 62.4756 12.2081 66.7374 13.9052 70.5436C16.1214 75.5241 26.344 81.3347 26.344 81.3347L30.0975 62.5364Z" fill="#FFDF8F"/>
<path d="M99.8906 62.7188C104.533 64.632 109.045 65.7151 113.977 66.363C118.359 66.94 117.381 71.2018 114.805 73.5098C110.403 77.4679 106.06 82.0435 101.348 85.5662C98.7725 83.1064 100.08 76.3746 100 73.034C99.9205 69.5922 99.8706 66.1606 99.8906 62.7188Z" fill="#FFD56A"/>
<path d="M96.497 51.8752C86.1575 39.3612 67.0011 32.6284 51.1884 36.3542C39.197 39.179 29.5441 47.6836 25.8422 59.7318C20.8964 75.7894 25.892 93.963 41.038 101.921C53.7956 108.623 70.4045 108.563 83.3811 102.508C90.9541 98.9847 97.6912 92.8695 101.095 85.0432C106.657 72.2154 103.742 60.6228 96.507 51.865L96.497 51.8752Z" fill="#FFD56A"/>
<mask id="mask0_3904_15701" style="mask-type:luminance" maskUnits="userSpaceOnUse" x="24" y="35" width="80" height="73">
<path d="M96.497 51.8752C86.1575 39.3612 67.0011 32.6284 51.1884 36.3542C39.197 39.179 29.5441 47.6836 25.8422 59.7318C20.8964 75.7894 25.892 93.963 41.038 101.921C53.7956 108.623 70.4045 108.563 83.3811 102.508C90.9541 98.9847 97.6912 92.8695 101.095 85.0432C106.657 72.2154 103.742 60.6228 96.507 51.865L96.497 51.8752Z" fill="white"/>
</mask>
<g mask="url(#mask0_3904_15701)">
<path d="M97.1723 51.8754C103.143 61.9696 102.626 76.5287 98.4162 87.2101C94.2068 97.8915 85.7979 107.135 77.6278 115.002C74.3637 118.141 79.2996 123.152 82.5537 120.014C92.0772 110.851 101.621 99.9772 105.86 87.119C109.85 75.01 109.791 59.4587 103.193 48.2913C100.884 44.3832 94.8636 47.947 97.1822 51.8652L97.1723 51.8754Z" fill="#213546"/>
<path d="M97.1723 51.8754C103.143 61.9696 102.626 76.5287 98.4162 87.2101C94.2068 97.8915 85.7979 107.135 77.6278 115.002C74.3637 118.141 79.2996 123.152 82.5537 120.014C92.0772 110.851 101.621 99.9772 105.86 87.119C109.85 75.01 109.791 59.4587 103.193 48.2913C100.884 44.3832 94.8636 47.947 97.1822 51.8652L97.1723 51.8754Z" fill="black" fill-opacity="0.2"/>
<path d="M82.5557 38.9766C85.3123 40.961 87.7703 43.3909 89.9297 46.1144C92.0693 48.848 93.9003 51.8955 95.2637 55.1759C98.0102 61.7366 98.8561 69.1781 97.7316 76.2552C97.1843 79.7786 96.2787 83.1703 95.0049 86.4911C93.7112 89.7918 91.9797 92.9405 89.8202 95.7652C87.6807 98.6001 85.0635 101.05 82.1676 102.974C79.2618 104.898 76.0873 106.295 72.8133 107.115L72.4551 106.173C75.331 104.543 77.998 102.711 80.3266 100.534C80.9237 100.018 81.4611 99.4202 82.0084 98.8532C82.5756 98.3065 83.0732 97.6889 83.5708 97.0814C84.0883 96.4942 84.5361 95.8361 84.9839 95.1983C85.4516 94.5705 85.8695 93.9023 86.2775 93.2442C89.5316 87.8985 91.3826 81.7022 92.2583 75.4351C93.0942 69.2389 92.5469 62.9212 90.696 56.897C89.7705 53.8799 88.5564 50.9235 87.0538 48.0684C85.5611 45.2032 83.7698 42.4594 81.8691 39.6954L82.5657 38.9766H82.5557Z" fill="#213546"/>
<path d="M82.5557 38.9766C85.3123 40.961 87.7703 43.3909 89.9297 46.1144C92.0693 48.848 93.9003 51.8955 95.2637 55.1759C98.0102 61.7366 98.8561 69.1781 97.7316 76.2552C97.1843 79.7786 96.2787 83.1703 95.0049 86.4911C93.7112 89.7918 91.9797 92.9405 89.8202 95.7652C87.6807 98.6001 85.0635 101.05 82.1676 102.974C79.2618 104.898 76.0873 106.295 72.8133 107.115L72.4551 106.173C75.331 104.543 77.998 102.711 80.3266 100.534C80.9237 100.018 81.4611 99.4202 82.0084 98.8532C82.5756 98.3065 83.0732 97.6889 83.5708 97.0814C84.0883 96.4942 84.5361 95.8361 84.9839 95.1983C85.4516 94.5705 85.8695 93.9023 86.2775 93.2442C89.5316 87.8985 91.3826 81.7022 92.2583 75.4351C93.0942 69.2389 92.5469 62.9212 90.696 56.897C89.7705 53.8799 88.5564 50.9235 87.0538 48.0684C85.5611 45.2032 83.7698 42.4594 81.8691 39.6954L82.5657 38.9766H82.5557Z" fill="black" fill-opacity="0.2"/>
</g>
<path d="M64.9878 42.4221C64.9878 42.4221 63.1933 31.7314 74.8716 34.9163" stroke="#6F6E72" stroke-linecap="round" stroke-linejoin="round"/>
<path d="M35.4395 38.8793C35.4395 38.8793 44.4241 33.3117 46.6711 43.1411" stroke="#6F6E72" stroke-linecap="round" stroke-linejoin="round"/>
<path d="M76.0992 37.8264C77.3287 37.8264 78.3254 36.8157 78.3254 35.5689C78.3254 34.3222 77.3287 33.3115 76.0992 33.3115C74.8698 33.3115 73.873 34.3222 73.873 35.5689C73.873 36.8157 74.8698 37.8264 76.0992 37.8264Z" fill="#6F6E72"/>
<path d="M35.1696 41.8757C36.3991 41.8757 37.3958 40.865 37.3958 39.6183C37.3958 38.3715 36.3991 37.3608 35.1696 37.3608C33.9401 37.3608 32.9434 38.3715 32.9434 39.6183C32.9434 40.865 33.9401 41.8757 35.1696 41.8757Z" fill="#6F6E72"/>
<path d="M54.6536 68.6473C56.1509 68.6027 56.824 70.2381 57.0673 71.5995C57.1671 72.1581 56.7125 72.6301 56.1518 72.586C55.5692 72.5402 54.8196 72.4478 54.1235 72.2618C53.4367 72.0783 52.785 71.811 52.3072 71.5909C51.8565 71.3832 51.6598 70.8479 51.9128 70.4147C52.3926 69.5933 53.2333 68.6897 54.6536 68.6473Z" fill="#FAA83F"/>
<path opacity="0.36" d="M54.8458 76.7998C60.1497 76.7998 64.4494 72.4398 64.4494 67.0615C64.4494 61.6832 60.1497 57.3232 54.8458 57.3232C49.5419 57.3232 45.2422 61.6832 45.2422 67.0615C45.2422 72.4398 49.5419 76.7998 54.8458 76.7998Z" fill="url(#paint0_radial_3904_15701)"/>
<path d="M47.0302 70.311C48.3424 70.311 49.4062 68.7972 49.4062 66.9299C49.4062 65.0626 48.3424 63.5488 47.0302 63.5488C45.718 63.5488 44.6543 65.0626 44.6543 66.9299C44.6543 68.7972 45.718 70.311 47.0302 70.311Z" fill="#213546"/>
<path d="M47.0302 70.311C48.3424 70.311 49.4062 68.7972 49.4062 66.9299C49.4062 65.0626 48.3424 63.5488 47.0302 63.5488C45.718 63.5488 44.6543 65.0626 44.6543 66.9299C44.6543 68.7972 45.718 70.311 47.0302 70.311Z" fill="black" fill-opacity="0.2"/>
<path d="M61.9951 70.311C63.3073 70.311 64.371 68.7972 64.371 66.9299C64.371 65.0626 63.3073 63.5488 61.9951 63.5488C60.6829 63.5488 59.6191 65.0626 59.6191 66.9299C59.6191 68.7972 60.6829 70.311 61.9951 70.311Z" fill="#213546"/>
<path d="M61.9951 70.311C63.3073 70.311 64.371 68.7972 64.371 66.9299C64.371 65.0626 63.3073 63.5488 61.9951 63.5488C60.6829 63.5488 59.6191 65.0626 59.6191 66.9299C59.6191 68.7972 60.6829 70.311 61.9951 70.311Z" fill="black" fill-opacity="0.2"/>
<path d="M46.7311 66.6769C47.1447 66.6769 47.4799 66.2237 47.4799 65.6646C47.4799 65.1056 47.1447 64.6523 46.7311 64.6523C46.3176 64.6523 45.9824 65.1056 45.9824 65.6646C45.9824 66.2237 46.3176 66.6769 46.7311 66.6769Z" fill="white"/>
<path d="M47.9586 69.1062C48.2453 69.1062 48.4777 68.7889 48.4777 68.3976C48.4777 68.0062 48.2453 67.689 47.9586 67.689C47.6719 67.689 47.4395 68.0062 47.4395 68.3976C47.4395 68.7889 47.6719 69.1062 47.9586 69.1062Z" fill="white"/>
<path d="M62.8726 69.1062C63.1593 69.1062 63.3917 68.7889 63.3917 68.3976C63.3917 68.0062 63.1593 67.689 62.8726 67.689C62.5859 67.689 62.3535 68.0062 62.3535 68.3976C62.3535 68.7889 62.5859 69.1062 62.8726 69.1062Z" fill="white"/>
<path d="M61.6061 66.6769C62.0197 66.6769 62.3549 66.2237 62.3549 65.6646C62.3549 65.1056 62.0197 64.6523 61.6061 64.6523C61.1926 64.6523 60.8574 65.1056 60.8574 65.6646C60.8574 66.2237 61.1926 66.6769 61.6061 66.6769Z" fill="white"/>
<path d="M11.8448 58.4358C11.0362 58.8306 10.2875 59.3368 9.63858 59.9138C7.04302 62.2218 5.91494 65.8661 5.20615 69.1763C3.66878 76.3028 1.42262 79.3701 0.304525 80.514C-0.104776 80.9391 -0.104776 81.6275 0.32449 82.0324C0.893519 82.5689 1.85188 83.1358 3.36929 83.0953C6.22441 83.0245 7.24268 81.3744 9.89814 81.1011C12.5536 80.8278 14.1109 81.7895 15.818 80.8278C16.8662 80.2305 17.6549 79.532 18.1041 79.0866C18.3737 78.8234 18.4735 78.4286 18.3836 78.0642C18.204 77.386 17.9244 76.1611 17.7947 74.7641C17.595 72.6282 18.2488 62.4958 19.4668 61.6556C20.6447 60.8458 18.8429 58.7901 18.0742 58.3447C16.1175 57.2211 13.8214 57.4843 11.8548 58.4358H11.8448Z" fill="#D6E9F5"/>
<path d="M63.9611 75.767C63.9611 76.8704 63.0826 77.7714 61.9844 77.7714C60.8863 77.7714 60.0078 76.8806 60.0078 75.767C60.0078 74.6535 61.1658 71.9507 61.9844 71.9507C62.9827 71.9507 63.9611 74.6636 63.9611 75.767Z" fill="#E2F2FC"/>
<path fill-rule="evenodd" clip-rule="evenodd" d="M117.5 36.4134C131.031 36.4134 142 28.262 142 18.2067C142 8.15141 131.031 0 117.5 0C103.969 0 93 8.15141 93 18.2067C93 23.1686 95.671 27.6668 100.003 30.9508C99.9772 31.0025 99.9525 31.0546 99.9286 31.1071C99.128 32.8708 97.9609 34.9312 96.4955 36.4134C94.1945 38.7408 100.424 36.3079 104.579 33.6786C108.33 35.4122 112.758 36.4134 117.5 36.4134Z" fill="#DBF7E4"/>
<path d="M111.997 14.5655C111.998 14.5544 111.997 14.5434 111.996 14.5324C111.871 13.4172 111.476 12.5409 110.793 11.9281C110.112 11.3167 109.167 10.989 107.985 10.9225C107.143 10.8751 106.483 10.9206 106.021 11.0729C105.789 11.1495 105.594 11.2571 105.454 11.4049C105.31 11.5563 105.231 11.741 105.22 11.9503C105.22 11.9551 105.22 11.9598 105.22 11.9645C105.3 16.6875 105.476 20.3736 105.753 23.0199C105.732 23.4745 105.866 23.8542 106.178 24.1237C106.485 24.3883 106.936 24.5212 107.497 24.5528C108.689 24.6199 109.635 24.3997 110.3 23.8555C110.968 23.3085 111.316 22.4641 111.376 21.3635L111.383 21.2276C111.406 20.8055 111.342 20.4045 111.189 20.032C111.145 19.7762 110.973 19.5008 110.721 19.211C110.496 18.9536 110.193 18.6671 109.812 18.3513C111.16 17.5077 111.896 16.4331 111.967 15.1234L111.997 14.5655ZM106.753 18.1102C106.649 17.2119 106.556 15.3268 106.48 12.4323C106.486 12.4308 106.493 12.4293 106.499 12.4278C106.572 12.4112 106.67 12.395 106.793 12.3794C107.037 12.3486 107.37 12.3221 107.794 12.3004C108.721 12.354 109.408 12.5951 109.879 13.0015C110.346 13.4038 110.626 13.9891 110.702 14.784C110.687 14.9859 110.594 15.3594 110.407 15.9268C109.217 17.413 107.996 18.1171 106.753 18.1102ZM106.843 19.4854C106.873 19.4734 106.922 19.4595 106.995 19.4472C107.186 19.4151 107.483 19.4029 107.895 19.4164L108.394 19.4445C109.028 19.4801 109.458 19.6693 109.725 19.9803C109.994 20.2929 110.129 20.7648 110.093 21.4324L110.085 21.5683C110.053 22.169 109.831 22.5797 109.439 22.8385C109.036 23.1048 108.422 23.2308 107.567 23.1827C107.411 23.1739 107.282 23.1305 107.179 23.0563C107.165 23.0463 107.15 23.0382 107.134 23.0321C107.123 23.0116 107.107 22.9752 107.09 22.9164C107.047 22.7745 107.007 22.5513 106.972 22.2387C106.904 21.6268 106.861 20.7104 106.843 19.4854ZM107.145 23.0491C107.145 23.0492 107.145 23.0488 107.144 23.0478L107.145 23.0491Z" fill="#37C056" stroke="#37C056" stroke-width="0.4" stroke-linejoin="round"/>
<path d="M121.365 12.7768C121.364 12.7742 121.363 12.7716 121.362 12.769C121.334 12.6952 121.265 12.6448 121.186 12.6404L120.938 12.6264C120.862 12.6221 120.802 12.6572 120.779 12.6717C120.746 12.6916 120.714 12.7173 120.684 12.7441C120.622 12.7984 120.548 12.8755 120.463 12.9717C120.29 13.1651 120.057 13.453 119.764 13.8326C119.192 14.5732 118.385 15.6746 117.342 17.1348C117.255 17.0952 117.137 17.0213 116.985 16.8984C116.763 16.719 116.491 16.4553 116.169 16.1036C115.525 15.4007 114.695 14.3627 113.678 12.9864C113.643 12.9384 113.588 12.9087 113.528 12.9053L113.28 12.8913C113.238 12.889 113.196 12.9001 113.16 12.9231L112.766 13.1783C112.713 13.213 112.679 13.2712 112.676 13.335C112.662 13.5947 112.751 13.8889 112.914 14.2075C113.079 14.5292 113.327 14.8944 113.655 15.302C114.3 16.1037 115.266 17.0887 116.549 18.2559C116.553 19.9333 116.583 21.2015 116.64 22.0571C116.669 22.4911 116.706 22.8261 116.75 23.0563C116.772 23.1699 116.798 23.2694 116.832 23.3454C116.849 23.383 116.872 23.4259 116.906 23.4626C116.94 23.5002 116.999 23.5448 117.082 23.5495L117.461 23.5708C117.495 23.5727 117.528 23.5662 117.559 23.5517L117.814 23.4299C117.884 23.3966 117.928 23.3258 117.928 23.2483C117.91 20.6406 117.911 19.0871 117.932 18.581C119.13 16.975 120.031 15.7508 120.636 14.9089C120.941 14.484 121.172 14.155 121.327 13.923C121.404 13.8074 121.464 13.7135 121.506 13.6429C121.527 13.6078 121.544 13.5755 121.558 13.5474C121.565 13.5335 121.572 13.5178 121.577 13.5016C121.582 13.4884 121.591 13.4612 121.593 13.428C121.604 13.2272 121.512 13.0067 121.365 12.7768Z" fill="#37C056" stroke="#37C056" stroke-width="0.4" stroke-linejoin="round"/>
<path d="M128.607 11.9599C128.577 11.9388 128.542 11.9255 128.503 11.9233L127.879 11.8882C127.874 11.8879 127.869 11.8879 127.863 11.888C126.061 11.9304 124.692 12.054 123.763 12.2628C123.3 12.3669 122.931 12.4952 122.672 12.6547C122.412 12.814 122.229 13.0264 122.214 13.3027C122.189 13.7672 122.179 14.1229 122.187 14.3653C122.191 14.4849 122.199 14.5866 122.215 14.6629C122.222 14.699 122.234 14.7434 122.256 14.7839C122.064 18.4409 122.29 21.2916 122.939 23.3273C122.964 23.4065 123.036 23.462 123.119 23.4666C125.286 23.5886 126.922 23.6235 128.022 23.5686C128.57 23.5413 128.996 23.4913 129.292 23.4143C129.438 23.3762 129.567 23.3279 129.664 23.263C129.762 23.1977 129.855 23.0959 129.863 22.9499L129.879 22.6686C129.88 22.639 129.875 22.6095 129.864 22.5821L129.748 22.2982C129.719 22.2265 129.651 22.1781 129.574 22.1737C129.139 22.1492 127.23 22.1316 123.864 22.1205C123.764 21.1229 123.69 20.3389 123.642 19.7682C123.594 19.198 123.574 18.8549 123.576 18.7202C123.58 18.7175 123.584 18.7144 123.589 18.7107C123.626 18.6862 123.689 18.6561 123.789 18.6234C124.374 18.6544 125.95 18.699 128.52 18.7533C128.553 18.754 128.586 18.7464 128.616 18.7313C128.754 18.6603 128.871 18.5823 128.957 18.4942C129.044 18.4054 129.11 18.2947 129.117 18.1633L129.124 18.0274C129.126 17.9979 129.121 17.9684 129.11 17.941C129.049 17.7914 128.983 17.6643 128.907 17.5705C128.833 17.4787 128.728 17.3912 128.587 17.3833C127.34 17.313 125.646 17.2592 123.517 17.2265C123.49 16.3928 123.491 15.7668 123.514 15.3418L123.602 13.7004C125.811 13.3838 127.333 13.2509 128.183 13.2987L128.305 13.3056C128.341 13.3076 128.376 13.3001 128.408 13.2839C128.546 13.2129 128.663 13.1349 128.749 13.0468C128.836 12.958 128.902 12.8473 128.909 12.7159L128.924 12.4393C128.93 12.325 128.905 12.2103 128.829 12.1143C128.77 12.0398 128.691 11.9911 128.607 11.9599ZM123.566 18.7298C123.566 18.7298 123.566 18.7294 123.567 18.7285L123.566 18.7298Z" fill="#37C056" stroke="#37C056" stroke-width="0.4" stroke-linejoin="round"/>
<defs>
<radialGradient id="paint0_radial_3904_15701" cx="0" cy="0" r="1" gradientUnits="userSpaceOnUse" gradientTransform="translate(54.8558 67.0615) rotate(90) scale(9.73827 9.6036)">
<stop stop-color="#FA6C3F" stop-opacity="0.57"/>
<stop offset="0.94" stop-color="#FFD364"/>
</radialGradient>
</defs>
</svg>
